<svg xmlns="http://www.w3.org/2000/svg" fill="currentColor" class="w-6 h-6" viewBox="0 0 24 24"><path d="M12.8 12.8a.8.8 0 1 1-1.6 0 .8.8 0 0 1 1.6 0zm-5.3 3a.8.8 0 1 0 0-1.6.8.8 0 0 0 0 1.6zm.8 1.4a.8.8 0 1 1-1.6 0 .8.8 0 0 1 1.5 0zm1.4-1.4a.8.8 0 1 0 0-1.6.8.8 0 0 0 0 1.6zm.8 1.4a.8.8 0 1 1-1.5 0 .8.8 0 0 1 1.5 0zm1.5-1.4a.8.8 0 1 0 0-1.6.8.8 0 0 0 0 1.6zm.8 1.4a.8.8 0 1 1-1.6 0 .8.8 0 0 1 1.6 0zm1.4-1.4a.8.8 0 1 0 0-1.6.8.8 0 0 0 0 1.6zm.8 1.4a.8.8 0 1 1-1.5 0 .8.8 0 0 1 1.5 0zm1.5-1.4a.8.8 0 1 0 0-1.6.8.8 0 0 0 0 1.6zm-1.5-3a.8.8 0 1 1-1.5 0 .8.8 0 0 1 1.5 0zm1.5.7a.8.8 0 1 0 0-1.5.8.8 0 0 0 0 1.5z"/><path fill-rule="evenodd" d="M6.8 2.3a.8.8 0 0 1 .7.7v1.5h9V3A.8.8 0 0 1 18 3v1.5h.8a3 3 0 0 1 3 3v11.3a3 3 0 0 1-3 3H5.2a3 3 0 0 1-3-3V7.4a3 3 0 0 1 3-3H6V3a.8.8 0 0 1 .8-.8zm13.4 9a1.5 1.5 0 0 0-1.4-1.6H5.2a1.5 1.5 0 0 0-1.5 1.6v7.4a1.5 1.5 0 0 0 1.5 1.6h13.6a1.5 1.5 0 0 0 1.4-1.6v-7.4z" clip-rule="evenodd"/></svg>