<svg xmlns="http://www.w3.org/2000/svg" xml:space="preserve" width="48" height="48" viewBox="0 0 12.7 12.7"><path d="M6 1c-1.2 0-2.4 0-3.5.2A2.2 2.2 0 0 0 .6 3.4v3.4c0 1 .8 2 1.9 2.1A26.5 26.5 0 0 0 3 9v2.2a.4.4 0 0 0 .7.3L5.2 10A2.4 2.4 0 0 1 4 8V5.5c0-1.2 1-2.3 2.2-2.4a27.8 27.8 0 0 1 4.6 0 2.4 2.4 0 0 1 .6.1c0-1-.8-1.9-1.9-2A27 27 0 0 0 6 1Zm2.4 2.8L6.2 4c-.9 0-1.5.8-1.5 1.6V8c0 .8.6 1.5 1.5 1.6h2l1.6 1.6a.4.4 0 0 0 .7-.3V9.5h.1c.9-.1 1.5-.8 1.5-1.6V5.5c0-.8-.6-1.5-1.5-1.6a27 27 0 0 0-2.2 0Z" style="stroke-width:.54641"/></svg>