<svg xmlns="http://www.w3.org/2000/svg" xml:space="preserve" width="48" height="48" viewBox="0 0 12.7 12.7"><path d="M6.3.7a5.7 5.7 0 1 0 0 11.4A5.7 5.7 0 0 0 6.3.7zm0 1a4.7 4.7 0 1 1 0 9.4 4.7 4.7 0 0 1 0-9.5zm0 1.8c-.7 0-1.3.1-1.7.5-.4.3-.7.8-.8 1.4l1.4.3c0-.4.2-.7.4-.8.1-.2.4-.3.6-.3.4 0 .7.2 1 .4l.2 1.4c0 .6 0 1-.3 1.3a1 1 0 0 1-.8.4 1 1 0 0 1-.7-.3 1 1 0 0 1-.3-.6l-1.5.2c.2.6.5 1 .9 1.4.4.2 1 .4 1.6.4.8 0 1.4-.3 2-.8a3 3 0 0 0 .6-2 3 3 0 0 0-.7-2.2c-.5-.5-1.1-.7-1.9-.7z" style="stroke-width:.586669"/></svg>