<svg xmlns="http://www.w3.org/2000/svg" width="48" height="48" fill="currentColor" class="w-6 h-6"><path d="M40 2.6a5.6 5.6 0 0 0-4 1.6l-2.4 2.5 8 8 2.4-2.5a5.6 5.6 0 0 0 0-8 5.6 5.6 0 0 0-4-1.6zM31.3 9l-18 18a11.3 11.3 0 0 0-2.8 4.8l-1.8 5.7a1.6 1.6 0 0 0 2 2l5.8-1.7a11.3 11.3 0 0 0 4.7-2.8l18-18-8-8zM8.7 10.6a6.4 6.4 0 0 0-6.4 6.5v22.5A6.4 6.4 0 0 0 8.7 46h22.5a6.4 6.4 0 0 0 6.4-6.4V28.3a1.6 1.6 0 0 0-3.2 0v11.3a3.2 3.2 0 0 1-3.2 3.2H8.7a3.2 3.2 0 0 1-3.2-3.2V17a3.2 3.2 0 0 1 3.2-3.2h11.2a1.6 1.6 0 0 0 0-3.3H8.7z" style="stroke-width:2.14311"/></svg>