<svg xmlns="http://www.w3.org/2000/svg" xml:space="preserve" width="48" height="48" viewBox="0 0 12.7 12.7"><path fill-rule="evenodd" d="M6.6 1.7a3.9 3.9 0 0 0-2.1.6.4.4 0 1 1-.5-.7 4.8 4.8 0 0 1 7.4 4c0 1.7-.3 3.4-1 4.9a.4.4 0 0 1-.7-.3 12.5 12.5 0 0 0 .8-4.6 3.9 3.9 0 0 0-3.9-4ZM3.3 2.8a.4.4 0 0 1 0 .6 3.9 3.9 0 0 0-.6 2.2c0 .9-.2 1.8-.7 2.5a.4.4 0 0 1-.7-.5 3.9 3.9 0 0 0 .6-2c0-1 .3-2 .8-2.7a.4.4 0 0 1 .6 0Zm3.3 1A1.7 1.7 0 0 0 5 5.6c0 1.7-.7 3.4-1.8 4.6a.4.4 0 1 1-.6-.6 6 6 0 0 0 1.5-4 2.6 2.6 0 1 1 5.2 0v.9a.4.4 0 0 1-.9 0v-1a1.7 1.7 0 0 0-1.7-1.7Zm0 1.3a.4.4 0 0 1 .5.5 9 9 0 0 1-2.2 5.9.4.4 0 0 1-.7-.6 8.2 8.2 0 0 0 2-5.3.4.4 0 0 1 .4-.5Zm1.9 3a.4.4 0 0 1 .3.6 11.2 11.2 0 0 1-1.5 3.2.4.4 0 1 1-.7-.5 10.3 10.3 0 0 0 1.4-3 .4.4 0 0 1 .5-.3Z" clip-rule="evenodd" style="stroke-width:.576854"/></svg>