<svg xmlns="http://www.w3.org/2000/svg" xml:space="preserve" width="48" height="48" viewBox="0 0 12.7 12.7"><path d="m4.5 11.5-1-.6A5.5 5.5 0 0 1 8 1.1a5.5 5.5 0 0 1 0 10.5c-.2 0-.2 0-.3-.2v-2l-.3-.5v-.1c1-.2 1.5-.4 1.9-1 .3-.3.5-1 .5-1.7 0-.6-.2-1-.5-1.4V3.3L9.1 3c-.3 0-.8.2-1.2.5H5.3l-.2.1-.2-.1c-.4-.3-1-.5-1.2-.5l-.2.3v1.2l-.1.1c-.4.5-.5 1-.4 1.8.1 1.3.8 2 2.3 2.3h.1l-.3.6v.1h-.2c-.3.2-.6.2-.9 0-.2 0-.3-.2-.5-.4-.2-.4-.5-.6-.8-.6h-.3l.3.3.5.7a122.3 122.3 0 0 0 .6.7l.7.1a2.8 2.8 0 0 0 .6 0v.5c0 .6 0 .7-.2.7h-.4z" style="fill:#000;stroke-width:.0258999"/></svg>