<svg xmlns="http://www.w3.org/2000/svg" xmlns:xlink="http://www.w3.org/1999/xlink" width="48" height="48" viewBox="0 0 24 24"><defs><linearGradient id="a"><stop offset="0" style="stop-color:#f9ce34;stop-opacity:1"/><stop offset=".5" style="stop-color:#ee2a7b;stop-opacity:1"/><stop offset="1" style="stop-color:#6228d7;stop-opacity:1"/></linearGradient><linearGradient xlink:href="#a" id="b" x1="6.307" x2="17.828" y1="6.437" y2="17.383" gradientUnits="userSpaceOnUse"/></defs><path d="M7.8 2h8.4C19.4 2 22 4.6 22 7.8v8.4a5.8 5.8 0 0 1-5.8 5.8H7.8C4.6 22 2 19.4 2 16.2V7.8A5.8 5.8 0 0 1 7.8 2m-.2 2A3.6 3.6 0 0 0 4 7.6v8.8C4 18.39 5.61 20 7.6 20h8.8a3.6 3.6 0 0 0 3.6-3.6V7.6C20 5.61 18.39 4 16.4 4H7.6m9.65 1.5a1.25 1.25 0 0 1 1.25 1.25A1.25 1.25 0 0 1 17.25 8 1.25 1.25 0 0 1 16 6.75a1.25 1.25 0 0 1 1.25-1.25M12 7a5 5 0 0 1 5 5 5 5 0 0 1-5 5 5 5 0 0 1-5-5 5 5 0 0 1 5-5m0 2a3 3 0 0 0-3 3 3 3 0 0 0 3 3 3 3 0 0 0 3-3 3 3 0 0 0-3-3Z" style="fill-opacity:1;fill:url(#b)"/></svg>