<svg xmlns="http://www.w3.org/2000/svg" xml:space="preserve" width="48" height="48" viewBox="0 0 12.7 12.7"><path d="M6.978.565c-1.958.01-3.556.374-5.363 1.02v4.717c0 2.344 1.803 5.095 5.012 5.87-1.117-1.448-1.054-2.829-.985-3.997.133-.83.366-2.15.985-2.14.336.042.63.463.704.732A5.26 5.26 0 0 1 7.5 8.794s.683-.778.873-1.971c.165-1.044-.649-2.107-.62-2.957.018-.534.507-1.037 1.042-1.037.766 0 .862.84.862.84.11-.653.6-.853 1.022-1.14.323-.218 1.1-.401 1.1-.401s-.784-.25-1.38-.74c-.253-.208-.52-.455-.844-.506-.657-.104-1.363.125-1.943.45-1.3.73-2.062 2.217-2.062 2.217.147-.897.787-2.23 2.034-2.977a18.863 18.863 0 0 0-.606-.007Zm2.665.76a.515.515 0 1 1 .04 1.03.515.515 0 0 1-.04-1.03Zm.152 3.302.087 1.022c.035.423 0 1.064-.046 1.507-.067.573-.281 1.466-1.047 2.964.827-1.482 1.07-2.209 1.14-2.644.16.233.336.311.316.938 0 0 .454-.757.294-1.57-.062-.315-.32-.68-.445-1.05s-.234-.912-.299-1.167Z" style="fill:#000;fill-rule:evenodd;stroke:none;stroke-width:.0379575px;stroke-linecap:butt;stroke-linejoin:miter;stroke-opacity:1"/></svg>