<svg xmlns="http://www.w3.org/2000/svg" width="48" height="48" preserveAspectRatio="xMidYMid" viewBox="0 -192.5 30.7 30.7"><path fill="#3088d4" d="M26.4-174.5c-.3 1.9-3.3 4-6.7 4.4-1.8.2-3.5.4-5.4.3-3-.1-5.5-.7-5.5-.7l.1.8c.4 3 3 3.2 5.4 3.3 2.5.1 4.7-.6 4.7-.6l.1 2.2s-1.7 1-4.8 1.1c-1.7.1-3.8 0-6.3-.7-5.3-1.4-6.2-7-6.4-12.8v-4.7c0-5.9 3.9-7.6 3.9-7.6a24 24 0 0 1 8.8-1.3c3.5 0 6.9.4 8.8 1.3 0 0 3.9 1.7 3.9 7.6 0 0 0 4.4-.6 7.4" style="stroke-width:.21533;fill:#000;fill-opacity:1"/><path fill="#fff" d="M7-183.3a1.6 1.6 0 1 1 3 0 1.6 1.6 0 0 1-3 0m22.3 1.9v7.1h-2.9v-7c0-1.4-.6-2.1-1.8-2.1-1.4 0-2 .9-2 2.6v3.8h-2.9v-3.8c0-1.7-.6-2.6-2-2.6-1.2 0-1.8.7-1.8 2.2v6.9H13v-7.1c0-1.5.4-2.7 1.1-3.5.8-.9 1.8-1.3 3-1.3 1.5 0 2.6.5 3.3 1.7l.7 1.1.7-1.1a3.6 3.6 0 0 1 3.3-1.7c1.3 0 2.3.4 3 1.3.8.8 1.2 2 1.2 3.5" style="stroke-width:.21533"/></svg>