<svg xmlns="http://www.w3.org/2000/svg" xml:space="preserve" width="144" height="48" viewBox="0 0 38.1 12.7"><path d="M34.3.5c-1.5 0-2.5 1-2.5 2.6 0 1.5.9 2.5 2.3 2.5.7 0 1.2-.2 1.5-.6l.2.5h.7V2.7h-2.2v1h1v.1c0 .7-.5.9-1 .9C33.5 4.7 33 4 33 3s.6-1.6 1.3-1.6c.5 0 .8.2 1 .5l1-.5c-.4-.6-1.2-1-2-1zM1.6.6v5h1.1v-2h2.4V2.4H2.7v-.9h2.4v-1H1.6zM23 .6v5h3.5V4.4h-2.4V.6h-1.1zm4 0v2.8c0 1.5.5 2.2 2 2.2s2.1-.7 2.1-2.2V.6h-1.1v2.9c0 .7-.2 1.2-1 1.2s-1-.5-1-1.2V.6h-1zM11.8 1.8c-.5 0-.9.2-1 .8l-.3-.7h-.9v3.6H11V3.7c0-.6.3-.8.8-.8h.3V1.8h-.1zm-4.5 0c-1.1 0-2 .7-2 1.9s.8 2 2 2A2 2 0 0 0 9 4.7L8 4.5l-.7.2c-.4 0-.8-.2-.9-.7h2.7c0-1.3-.6-2.2-1.8-2.2zm7.3 0c-.5 0-1 .3-1.1.6l-.1-.5h-1v3.6h1.1V3.6c0-.6.2-1 .7-1 .5 0 .5.5.5 1v2h1.1v-2c0-.6.2-1 .7-1 .5 0 .5.5.5 1v2h1.1V3.2c0-1-.2-1.5-1.2-1.5-.5 0-1 .2-1.2.6-.2-.4-.5-.6-1.1-.6zm6 0c-1 0-2 .6-2 1.9 0 1.3 1 2 2 2s1.9-.7 1.9-2-1-2-2-2zm-13.3.8c.4 0 .8.3.8.7H6.5c0-.5.5-.7.9-.7zm13.3 0c.4 0 .7.3.7 1 0 .9-.3 1.1-.7 1.1-.5 0-.8-.2-.8-1s.3-1 .8-1z" style="font-weight:700;font-size:7.33763px;line-height:125%;font-family:&quot;Atkinson Hyperlegible&quot;;-inkscape-font-specification:&quot;Atkinson Hyperlegible Bold&quot;;letter-spacing:.00183441px;word-spacing:0;fill:#000;stroke:none;stroke-width:.183441px"/><path d="M7.6 6.6c-.3 0-.5.2-.5.5s.2.5.5.5.5-.2.5-.5-.2-.5-.5-.5zm11.4.2c-.8 0-1 .2-1 .8v.5h-.5v.6h.4v2h.9v-2h.6v-.6h-.6v-.4c0-.2 0-.2.3-.2h.3v-.7H19zM5.2 7v3c0 .6.2.7 1 .7h.4V10h-.2c-.3 0-.4 0-.4-.3V7.1h-.8zm27.1.9c-.5 0-1.1.4-1.1 1.4 0 .8.6 1.3 1.2 1.3.3 0 .6-.1.8-.4v.5c0 .3-.2.5-.6.5-.1 0-.4 0-.5-.3l-.6.3c.2.5.7.6 1.2.6.8 0 1.4-.4 1.4-1.3V8h-.8v.3a1 1 0 0 0-1-.4zM31 8c-.4 0-.6.2-.8.6l-.2-.5h-.6v2.7h.8V9.4c0-.4.2-.6.6-.6h.3V8h-.1zM10.2 8a1 1 0 0 0-.8.4l-.2-.3h-.7v2.7h.9V9.4c0-.5.1-.8.5-.8s.4.4.4.7v1.5h.8V9c0-.7-.2-1.1-1-1.1zm11.2 0a1 1 0 0 0-.8.4l-.1-.3h-.8v2.7h.9V9.4c0-.5.1-.8.5-.8s.4.4.4.7v1.5h.8V9.4c0-.5.2-.8.5-.8.4 0 .4.4.4.7v1.5h.9V9c0-.7-.3-1.1-1-1.1-.3 0-.7.1-.9.4-.1-.3-.4-.4-.8-.4zm6 0c-.7 0-1.4.4-1.4 1.4 0 1 .7 1.5 1.4 1.5.8 0 1.5-.5 1.5-1.5S28.2 8 27.4 8zM6.6 8v.7h.6v2H8V8.2H6.6zm5 0v1.7c0 .7.3 1.2 1 1.2.4 0 .6-.2.8-.5l.1.4h.7V8h-.8v1.4c0 .5-.1.7-.5.7s-.4-.3-.4-.7V8h-.8zm3 0 1 1.4-1 1.4h.8l.6-.8.5.8h1l-1-1.4.9-1.3h-1l-.4.6-.5-.6h-.9zm12.8.6c.4 0 .6.2.6.8 0 .6-.2.8-.6.8-.3 0-.6-.2-.6-.8 0-.6.3-.8.6-.8zm5.3 0c.3 0 .6.2.6.7 0 .6-.3.7-.6.7-.4 0-.6-.2-.6-.7 0-.5.2-.7.6-.7zM25 9.8c-.3 0-.5.2-.5.5s.2.6.5.6.5-.3.5-.6-.2-.5-.5-.5z" style="font-weight:700;font-size:5.4957px;line-height:80%;font-family:&quot;Atkinson Hyperlegible&quot;;-inkscape-font-specification:&quot;Atkinson Hyperlegible Bold&quot;;letter-spacing:.00137393px;word-spacing:0;fill:#ccc;stroke-width:.137393px"/></svg>