<svg xmlns="http://www.w3.org/2000/svg" viewBox="0 0 24 24"><path d="M12 2a10 10 0 0 0-8.6 14.9L2 22l5.3-1.4A10 10 0 1 0 12 2m0 1.7A8.2 8.2 0 1 1 7.9 19l-.2-.2-3.2.8.9-3-.2-.3a8.3 8.3 0 0 1 7-12.6M8.5 7.3a1 1 0 0 0-.6.3c-.3.3-.9.9-.9 2.1 0 1.2.9 2.4 1 2.6.1.1 1.8 2.6 4.3 3.7.5.3 1 .4 1.4.5.6.2 1 .2 1.5.1.5 0 1.5-.6 1.7-1.2.2-.5.2-1 .1-1.1l-.4-.3-1.7-.8c-.3-.1-.4-.1-.6.1l-.8 1c-.1.1-.3.2-.5 0-.3 0-1-.4-2-1.2a7.6 7.6 0 0 1-1.4-1.7c-.1-.3 0-.4.1-.5l.4-.5.3-.4v-.4l-.8-1.8c-.2-.5-.4-.5-.6-.5h-.5Z" style="fill:#0070cc;fill-rule:evenodd;stroke:none"/></svg>